<svg width="12" height="11" viewBox="0 0 12 11" fill="none" xmlns="http://www.w3.org/2000/svg">
<path d="M10.3994 10C10.6756 10 10.8994 10.2239 10.8994 10.5C10.8994 10.7761 10.6756 11 10.3994 11H1.59961C1.32347 11 1.09961 10.7761 1.09961 10.5C1.09961 10.2239 1.32347 10 1.59961 10H10.3994ZM6 4.44434C7.9345 4.44434 9.52365 5.90031 9.7666 7.77734H11.5C11.776 7.77734 11.9998 8.00141 12 8.27734C12 8.55349 11.7761 8.77734 11.5 8.77734H9.2998C9.02375 8.77724 8.7998 8.55342 8.7998 8.27734C8.79956 6.70799 7.54152 5.44434 6 5.44434C4.45848 5.44434 3.20044 6.70799 3.2002 8.27734C3.2002 8.55342 2.97625 8.77724 2.7002 8.77734H0.5C0.223858 8.77734 0 8.55349 0 8.27734C0.000245171 8.00141 0.224009 7.77734 0.5 7.77734H2.2334C2.47635 5.90031 4.0655 4.44434 6 4.44434ZM1.24805 3.47754C1.44431 3.28359 1.76091 3.28531 1.95508 3.48145L3.05469 4.59277C3.24891 4.78896 3.24784 5.10551 3.05176 5.2998C2.85554 5.49406 2.53901 5.49207 2.34473 5.2959L1.24414 4.18555C1.04986 3.98931 1.05181 3.67182 1.24805 3.47754ZM10.043 3.48145C10.2371 3.2853 10.5537 3.28356 10.75 3.47754C10.9461 3.67172 10.9479 3.98831 10.7539 4.18457L9.65332 5.2959C9.45903 5.49204 9.1425 5.49405 8.94629 5.2998C8.75018 5.10552 8.74912 4.78897 8.94336 4.59277L10.043 3.48145ZM5.99805 0C6.13152 0 6.25961 0.0535914 6.35352 0.148438L7.4541 1.25977C7.648 1.45604 7.64631 1.77265 7.4502 1.9668C7.25395 2.16088 6.93738 2.15904 6.74316 1.96289L6.49805 1.71484V3.27734C6.49805 3.55349 6.27419 3.77734 5.99805 3.77734C5.72208 3.77713 5.49805 3.55336 5.49805 3.27734V1.71582L5.25391 1.96289C5.05972 2.15904 4.74314 2.16079 4.54688 1.9668C4.35073 1.77261 4.34897 1.45603 4.54297 1.25977L5.64355 0.148438L5.71973 0.0849609C5.80143 0.0300946 5.89816 7.79012e-05 5.99805 0Z" fill="#CE7800"/>
</svg>
